<svg width="30" height="30" viewBox="0 0 30 30" fill="none" xmlns="http://www.w3.org/2000/svg">
<path d="M24.4616 20.8077C24.4616 21.2769 24.2752 21.7269 23.9434 22.0587C23.6116 22.3905 23.1616 22.5769 22.6923 22.5769H11.1923C10.7231 22.5769 10.2731 22.3905 9.94129 22.0587C9.6095 21.7269 9.4231 21.2769 9.4231 20.8077V5.76923C9.4231 5.3 9.6095 4.84999 9.94129 4.5182C10.2731 4.1864 10.7231 4 11.1923 4H19.1539L24.4616 9.30769V20.8077Z" stroke="#9A9A9A" stroke-width="2" stroke-linecap="round" stroke-linejoin="round"/>
<path d="M19.1538 27H6.76923C6.3 27 5.84999 26.8136 5.5182 26.4818C5.1864 26.1501 5 25.7 5 25.2308V9.30774" stroke="#9A9A9A" stroke-width="2" stroke-linecap="round" stroke-linejoin="round"/>
</svg>
